<?xml version="1.0" standalone="no"?>
<!DOCTYPE svg PUBLIC "-//W3C//DTD SVG 20010904//EN"
 "http://www.w3.org/TR/2001/REC-SVG-20010904/DTD/svg10.dtd">
<svg version="1.0" xmlns="http://www.w3.org/2000/svg"
 width="880.000000pt" height="880.000000pt" viewBox="0 0 880.000000 880.000000"
 preserveAspectRatio="xMidYMid meet">
<metadata>
Created by potrace 1.11, written by Peter Selinger 2001-2013
</metadata>
<g transform="translate(0.000000,880.000000) scale(0.100000,-0.100000)"
fill="#000000" stroke="none">
<path d="M4376 8753 c-4 -16 -36 -116 -71 -223 -149 -459 -382 -974 -637
-1407 -118 -200 -346 -544 -482 -727 -45 -61 -145 -196 -221 -301 -76 -104
-162 -221 -191 -260 -145 -197 -395 -574 -509 -769 -342 -586 -511 -1036 -590
-1574 -13 -88 -19 -177 -30 -462 -6 -163 20 -433 62 -635 14 -66 29 -140 34
-165 5 -24 18 -69 28 -100 11 -30 24 -71 29 -90 62 -220 281 -648 418 -817 21
-25 33 -50 32 -65 -2 -14 2 -22 10 -20 15 3 16 -10 0 -26 -7 -7 -8 -12 -3 -13
42 -3 63 -16 103 -62 138 -159 408 -400 562 -502 25 -17 47 -32 50 -36 3 -3
19 -11 37 -18 18 -7 38 -19 44 -27 15 -18 247 -135 354 -179 183 -75 419 -141
585 -164 41 -6 107 -15 147 -21 174 -24 546 -5 763 40 299 62 602 181 850 334
41 25 80 46 87 46 7 0 13 4 13 9 0 7 35 33 135 101 133 90 347 299 503 494 36
45 71 85 79 89 7 4 13 12 13 18 0 5 26 49 59 98 264 396 435 879 486 1373 68
666 -72 1373 -394 1993 -74 142 -99 187 -157 280 -13 22 -29 49 -34 60 -22 45
-187 312 -267 431 -93 139 -450 637 -511 714 -16 19 -58 77 -95 128 -170 234
-196 271 -240 334 -26 38 -47 72 -47 77 0 5 -4 11 -8 13 -10 4 -89 121 -167
248 -308 501 -560 1039 -734 1570 -33 102 -63 197 -67 213 -3 15 -10 27 -14
27 -4 0 -11 -12 -14 -27z"/>
</g>
</svg>
